<svg width="66" height="45" viewBox="0 0 66 45" fill="none" xmlns="http://www.w3.org/2000/svg">
<g clip-path="url(#clip0)">
<path d="M9.858 27.549C9.459 25.399 9.557 23.412 10.049 21.608C10.54 19.801 11.427 18.176 12.604 16.747C13.78 15.315 15.246 14.082 16.897 13.059C18.549 12.036 20.387 11.221 22.306 10.633C23.4427 10.2841 24.6026 10.0158 25.777 9.83C26.9619 9.64218 28.1603 9.55288 29.36 9.563C30.556 9.577 31.747 9.699 32.908 9.954C34.068 10.208 35.199 10.592 36.275 11.126C36.935 11.454 37.711 11.953 38.459 12.566C39.205 13.179 39.924 13.908 40.463 14.695C41.002 15.482 41.365 16.328 41.402 17.174C41.439 18.02 41.152 18.868 40.39 19.662C39.8405 20.2368 39.1063 20.6 38.316 20.688C37.545 20.787 36.718 20.667 35.9 20.42C35.082 20.174 34.273 19.797 33.54 19.379C32.8727 18.9971 32.2374 18.562 31.64 18.078C30.8028 17.3916 30.0315 16.6287 29.336 15.799C28.6314 14.9582 28.0051 14.0548 27.465 13.1C26.925 12.143 26.475 11.137 26.134 10.102C25.7916 9.07449 25.5632 8.01244 25.453 6.935C25.3321 5.76475 25.3782 4.58325 25.59 3.426C25.7921 2.32982 26.1596 1.27073 26.68 0.285C29.926 -5.857 37.639 -7.075 43.907 -7.358C47.009 -7.497 50.114 -7.556 53.218 -7.597C56.411 -7.642 59.603 -7.539 62.786 -7.288" stroke="#4B5563" stroke-width="1.5" stroke-miterlimit="10" stroke-linecap="round"/>
<path d="M3.216 33.124C6.937 35.449 7.565 39.727 10.618 42.605C11.664 39.578 14.061 33.535 16.743 31.492" stroke="#4B5563" stroke-width="1.5" stroke-miterlimit="10" stroke-linecap="round" stroke-linejoin="round"/>
</g>
<defs>
<clipPath id="clip0">
<rect width="65" height="45" fill="white" transform="translate(0.5)"/>
</clipPath>
</defs>
</svg>
