<svg width="200" height="200" viewBox="0 0 200 200" fill="none" xmlns="http://www.w3.org/2000/svg">
<rect width="200" height="200" fill="white"/>
<mask id="mask0" mask-type="alpha" maskUnits="userSpaceOnUse" x="4" y="4" width="192" height="192">
<circle cx="100" cy="100" r="96" fill="#E0E0E0"/>
</mask>
<g mask="url(#mask0)">
<path d="M196 102.4C196 155.419 153.019 198.4 100 198.4C46.9807 198.4 4 155.419 4 102.4C4 49.3807 46.9807 6.39999 100 6.39999C153.019 6.39999 196 49.3807 196 102.4Z" fill="url(#paint0_linear)"/>
<path d="M156.4 103C156.4 133.817 131.417 158.8 100.6 158.8C69.7825 158.8 44.8 133.817 44.8 103C44.8 72.1825 69.7825 47.2 100.6 47.2C131.417 47.2 156.4 72.1825 156.4 103Z" fill="white"/>
<path d="M178 103C178 145.747 143.347 180.4 100.6 180.4C57.8532 180.4 23.2 145.747 23.2 103C23.2 60.2532 57.8532 25.6 100.6 25.6C143.347 25.6 178 60.2532 178 103Z" fill="white" fill-opacity="0.15"/>
<path d="M136 202C136 255.019 93.0193 298 40 298C-13.0193 298 -56 255.019 -56 202C-56 148.981 -13.0193 106 40 106C93.0193 106 136 148.981 136 202Z" fill="url(#paint1_linear)"/>
<path d="M256 193.6C256 246.619 213.019 289.6 160 289.6C106.981 289.6 64 246.619 64 193.6C64 140.581 106.981 97.6 160 97.6C213.019 97.6 256 140.581 256 193.6Z" fill="url(#paint2_linear)"/>
</g>
<defs>
<linearGradient id="paint0_linear" x1="100" y1="6.39999" x2="100" y2="198.4" gradientUnits="userSpaceOnUse">
<stop stop-color="#2F80ED"/>
<stop offset="1" stop-color="#2468C2"/>
</linearGradient>
<linearGradient id="paint1_linear" x1="44.8" y1="134.2" x2="105.4" y2="165.4" gradientUnits="userSpaceOnUse">
<stop stop-color="#60A5FA"/>
<stop offset="1" stop-color="#3175C9"/>
</linearGradient>
<linearGradient id="paint2_linear" x1="160" y1="158.8" x2="101.8" y2="90.4" gradientUnits="userSpaceOnUse">
<stop stop-color="#2F80ED"/>
<stop offset="1" stop-color="#7BB3FF"/>
</linearGradient>
</defs>
</svg>
