<svg width="241" height="241" viewBox="0 0 241 241" fill="none" xmlns="http://www.w3.org/2000/svg">
<mask id="mask0" mask-type="alpha" maskUnits="userSpaceOnUse" x="0" y="0" width="241" height="241">
<circle cx="120.5" cy="120.5" r="120.5" fill="#E0E0E0"/>
</mask>
<g mask="url(#mask0)">
<path d="M241 123.512C241 190.063 187.05 244.012 120.5 244.012C53.9497 244.012 0 190.063 0 123.512C0 56.9622 53.9497 3.01248 120.5 3.01248C187.05 3.01248 241 56.9622 241 123.512Z" fill="url(#paint0_linear)"/>
<path d="M191.294 124.266C191.294 162.948 159.935 194.306 121.253 194.306C82.5707 194.306 51.2125 162.948 51.2125 124.266C51.2125 85.5833 82.5707 54.225 121.253 54.225C159.935 54.225 191.294 85.5833 191.294 124.266Z" fill="white"/>
<path d="M218.406 124.266C218.406 177.922 174.909 221.419 121.253 221.419C67.5969 221.419 24.1 177.922 24.1 124.266C24.1 70.6094 67.5969 27.1125 121.253 27.1125C174.909 27.1125 218.406 70.6094 218.406 124.266Z" fill="white" fill-opacity="0.15"/>
<path d="M165.688 248.531C165.688 315.082 111.738 369.031 45.1875 369.031C-21.3628 369.031 -75.3125 315.082 -75.3125 248.531C-75.3125 181.981 -21.3628 128.031 45.1875 128.031C111.738 128.031 165.688 181.981 165.688 248.531Z" fill="url(#paint1_linear)"/>
<path d="M316.312 237.988C316.312 304.538 262.363 358.488 195.812 358.488C129.262 358.488 75.3125 304.538 75.3125 237.988C75.3125 171.437 129.262 117.488 195.812 117.488C262.363 117.488 316.312 171.437 316.312 237.988Z" fill="url(#paint2_linear)"/>
</g>
<defs>
<linearGradient id="paint0_linear" x1="120.5" y1="3.01248" x2="120.5" y2="244.012" gradientUnits="userSpaceOnUse">
<stop stop-color="#2F80ED"/>
<stop offset="1" stop-color="#2468C2"/>
</linearGradient>
<linearGradient id="paint1_linear" x1="51.2125" y1="163.428" x2="127.278" y2="202.591" gradientUnits="userSpaceOnUse">
<stop stop-color="#60A5FA"/>
<stop offset="1" stop-color="#3175C9"/>
</linearGradient>
<linearGradient id="paint2_linear" x1="195.813" y1="194.306" x2="122.759" y2="108.45" gradientUnits="userSpaceOnUse">
<stop stop-color="#2F80ED"/>
<stop offset="1" stop-color="#7BB3FF"/>
</linearGradient>
</defs>
</svg>
