<svg width="35" height="36" viewBox="0 0 35 36" fill="none" xmlns="http://www.w3.org/2000/svg">
<mask id="mask0" mask-type="alpha" maskUnits="userSpaceOnUse" x="0" y="0" width="35" height="36">
<circle cx="17.5" cy="18" r="17.5" fill="#E0E0E0"/>
</mask>
<g mask="url(#mask0)">
<path d="M35 18.4375C35 28.1025 27.165 35.9375 17.5 35.9375C7.83502 35.9375 0 28.1025 0 18.4375C0 8.77252 7.83502 0.9375 17.5 0.9375C27.165 0.9375 35 8.77252 35 18.4375Z" fill="url(#paint0_linear)"/>
<path d="M27.7813 18.5469C27.7813 24.1646 23.2271 28.7187 17.6094 28.7187C11.9916 28.7187 7.4375 24.1646 7.4375 18.5469C7.4375 12.9291 11.9916 8.375 17.6094 8.375C23.2271 8.375 27.7813 12.9291 27.7813 18.5469Z" fill="white"/>
<path d="M31.7188 18.5469C31.7188 26.3393 25.4018 32.6563 17.6094 32.6563C9.81698 32.6563 3.5 26.3393 3.5 18.5469C3.5 10.7545 9.81698 4.4375 17.6094 4.4375C25.4018 4.4375 31.7188 10.7545 31.7188 18.5469Z" fill="white" fill-opacity="0.15"/>
<path d="M24.0625 36.5938C24.0625 46.2587 16.2275 54.0938 6.5625 54.0938C-3.10248 54.0938 -10.9375 46.2587 -10.9375 36.5938C-10.9375 26.9288 -3.10248 19.0938 6.5625 19.0938C16.2275 19.0938 24.0625 26.9288 24.0625 36.5938Z" fill="url(#paint1_linear)"/>
<path d="M45.9375 35.0625C45.9375 44.7275 38.1025 52.5625 28.4375 52.5625C18.7725 52.5625 10.9375 44.7275 10.9375 35.0625C10.9375 25.3975 18.7725 17.5625 28.4375 17.5625C38.1025 17.5625 45.9375 25.3975 45.9375 35.0625Z" fill="url(#paint2_linear)"/>
</g>
<defs>
<linearGradient id="paint0_linear" x1="17.5" y1="0.9375" x2="17.5" y2="35.9375" gradientUnits="userSpaceOnUse">
<stop stop-color="#2F80ED"/>
<stop offset="1" stop-color="#2468C2"/>
</linearGradient>
<linearGradient id="paint1_linear" x1="7.4375" y1="24.2344" x2="18.4844" y2="29.9219" gradientUnits="userSpaceOnUse">
<stop stop-color="#60A5FA"/>
<stop offset="1" stop-color="#3175C9"/>
</linearGradient>
<linearGradient id="paint2_linear" x1="28.4375" y1="28.7188" x2="17.8281" y2="16.25" gradientUnits="userSpaceOnUse">
<stop stop-color="#2F80ED"/>
<stop offset="1" stop-color="#7BB3FF"/>
</linearGradient>
</defs>
</svg>
