<svg width="626" height="624" viewBox="0 0 626 624" fill="none" xmlns="http://www.w3.org/2000/svg">
<g clip-path="url(#clip0)">
<path opacity="0.07" d="M568.081 263.018C568.081 266.406 568.006 269.795 567.781 272.957C600.135 297.581 625.04 350.365 625.04 396.824C625.04 447.425 595.47 471.294 558.977 450.211C558.902 450.135 558.826 450.135 558.751 450.06L329.488 317.761C329.412 317.685 329.337 317.685 329.186 317.61C288.179 293.891 254.922 228.607 254.922 171.756C254.922 118.52 284.115 91.4878 321.512 107.827C326.101 71.3077 350.555 55.5703 380.05 72.6631C394.196 80.8707 407.213 95.2527 417.371 112.572C432.118 90.6595 457.249 85.0874 485.69 101.502C531.212 127.707 568.081 200.068 568.081 263.018Z" fill="url(#paint0_linear)"/>
<path opacity="0.4" d="M530.46 299.161C530.46 302.55 530.386 305.939 530.16 309.101C562.514 333.724 587.419 386.508 587.419 432.968C587.419 483.568 557.849 507.438 521.356 486.354C521.281 486.279 521.205 486.279 521.131 486.203L291.867 353.904C291.792 353.829 291.716 353.829 291.565 353.753C250.558 330.034 217.301 264.75 217.301 207.899C217.301 154.664 246.496 127.631 283.891 143.971C288.48 107.451 312.934 91.7138 342.429 108.807C356.576 117.015 369.592 131.396 379.75 148.715C394.497 126.803 419.629 121.231 448.071 137.646C493.592 163.85 530.46 236.212 530.46 299.161Z" fill="url(#paint1_linear)"/>
<path opacity="0.2" d="M167.49 363.617L132.578 343.437V331.615L167.49 351.795C170.35 353.452 174.488 356.765 178.024 361.885C181.862 367.382 184.57 374.309 184.57 381.839C184.57 390.123 182.464 394.866 178.401 396.221C174.638 397.501 170.199 395.317 167.415 393.737L153.043 385.454L152.968 385.378C151.764 384.625 149.808 383.948 148.228 384.399C146.949 384.776 145.519 386.056 145.519 390.649C145.519 395.242 146.949 398.104 148.153 399.76C149.658 401.868 151.614 403.374 152.818 403.977L152.968 404.052L196.835 429.428V441.25L153.194 416.025C150.184 414.444 145.895 411.131 142.134 405.86C138.07 400.137 135.211 392.833 135.286 384.701C135.286 376.644 138.07 372.502 142.134 371.372C145.895 370.319 150.184 371.825 153.194 373.707L167.415 381.915C169.446 383.119 171.027 383.646 172.005 383.27C172.757 383.044 174.262 381.915 174.262 375.891C174.262 372.05 172.983 369.49 171.855 367.758C170.5 365.801 168.619 364.295 167.49 363.617Z" fill="white"/>
<path d="M140.103 340.5C140.103 350.214 134.384 354.807 127.386 350.816C120.388 346.751 114.67 335.606 114.67 325.818C114.67 316.104 120.388 311.51 127.386 315.502C134.384 319.567 140.103 330.787 140.103 340.5Z" fill="#3B82F6"/>
<path d="M214.593 445.166C214.593 454.879 208.874 459.472 201.876 455.482C194.878 451.415 189.16 440.272 189.16 430.482C189.16 420.768 194.878 416.176 201.876 420.166C208.874 424.233 214.593 435.452 214.593 445.166Z" fill="#3B82F6"/>
<path opacity="0.07" d="M274.711 195.023L500.363 325.365V444.864L274.635 314.522L274.711 195.023Z" fill="url(#paint2_linear)"/>
<path opacity="0.3" d="M244.538 210.083L470.19 340.425V459.924L244.538 329.582V210.083Z" fill="url(#paint3_linear)"/>
<g filter="url(#filter0_dd)">
<path d="M264.778 281.241C264.778 290.878 270.496 301.948 277.494 306.014C284.491 310.08 290.21 305.562 290.21 295.923C290.21 286.286 284.491 275.217 277.494 271.151C270.496 267.084 264.778 271.602 264.778 281.241Z" fill="#3B82F6"/>
</g>
<path opacity="0.15" d="M296.607 299.839C296.607 304.282 299.24 309.478 302.552 311.361C305.787 313.243 308.42 311.135 308.42 306.692C308.42 302.249 305.787 297.053 302.476 295.171C299.24 293.289 296.607 295.397 296.607 299.839Z" fill="white"/>
<path opacity="0.15" d="M314.74 310.306C314.74 314.748 317.374 319.943 320.684 321.826C323.92 323.708 326.554 321.6 326.554 317.157C326.554 312.715 323.92 307.52 320.609 305.637C317.374 303.755 314.74 305.863 314.74 310.306Z" fill="white"/>
<path opacity="0.15" d="M413.232 330.636V398.631L404.353 393.511V325.516L413.232 330.636Z" fill="white"/>
<path opacity="0.15" d="M432.644 341.931V409.925L423.766 404.805V336.81L432.644 341.931Z" fill="white"/>
<path opacity="0.15" d="M452.132 353.226V421.221L443.253 416.1V348.106L452.132 353.226Z" fill="white"/>
<path opacity="0.07" d="M274.635 358.346L500.288 488.688V608.187L274.635 477.845V358.346Z" fill="url(#paint4_linear)"/>
<path opacity="0.3" d="M244.538 374.159L470.19 504.501V624L244.538 493.658V374.159Z" fill="url(#paint5_linear)"/>
<g filter="url(#filter1_dd)">
<path d="M264.778 445.315C264.778 454.954 270.496 466.023 277.494 470.089C284.491 474.156 290.21 469.637 290.21 459.999C290.21 450.36 284.491 439.292 277.494 435.226C270.496 431.16 264.778 435.678 264.778 445.315Z" fill="#3B82F6"/>
</g>
<path opacity="0.15" d="M296.607 463.991C296.607 468.433 299.24 473.628 302.552 475.511C305.787 477.393 308.42 475.285 308.42 470.842C308.42 466.399 305.787 461.205 302.476 459.322C299.24 457.44 296.607 459.472 296.607 463.991Z" fill="white"/>
<path opacity="0.15" d="M314.665 474.456C314.665 478.899 317.299 484.095 320.609 485.978C323.845 487.86 326.478 485.752 326.478 481.309C326.478 476.866 323.845 471.671 320.534 469.788C317.299 467.831 314.665 469.939 314.665 474.456Z" fill="white"/>
<path opacity="0.15" d="M413.232 497.046V565.041L404.353 559.92V491.926L413.232 497.046Z" fill="white"/>
<path opacity="0.15" d="M432.644 508.342V576.336L423.766 571.216V503.221L432.644 508.342Z" fill="white"/>
<path opacity="0.15" d="M452.132 519.636V587.63L443.253 582.51V514.516L452.132 519.636Z" fill="white"/>
<path opacity="0.3" d="M44.1676 33.0562L184.796 114.303V375.063L44.1676 293.74V33.0562Z" fill="url(#paint6_linear)"/>
<g filter="url(#filter2_dd)">
<path d="M130.997 127.48C130.997 140.507 123.473 146.682 114.218 141.26C104.963 135.839 97.4391 120.929 97.4391 107.903C97.4391 94.8763 104.963 88.7017 114.218 94.1232C123.473 99.5447 130.997 114.454 130.997 127.48Z" fill="#3B82F6"/>
</g>
<g filter="url(#filter3_dd)">
<path d="M114.218 151.727C99.2444 142.993 86.9046 151.199 84.7226 170.024C84.3465 173.262 86.8294 177.63 89.8391 179.361L138.671 207.9C141.681 209.632 144.165 208.277 143.788 204.511C141.53 183.051 129.116 160.462 114.218 151.727Z" fill="#3B82F6"/>
</g>
<path opacity="0.15" d="M72.3835 202.177L156.204 250.594V260.834L72.3835 212.418V202.177Z" fill="white"/>
<path opacity="0.15" d="M80.8865 227.402L147.325 265.729V275.969L80.8865 237.642V227.402Z" fill="white"/>
<g filter="url(#filter4_dd)">
<path d="M97.8153 270.473L0 213.924V243.065L97.8153 299.614V270.473Z" fill="#3B82F6"/>
</g>
<path opacity="0.2" d="M215.119 0L236.036 41.1131C238.895 46.7605 238.444 52.4079 234.983 53.7632C231.522 55.1187 226.406 51.5795 223.546 45.9322L223.32 45.4051V91.0361C223.32 96.2317 219.709 98.34 215.195 95.7798C210.68 93.1444 207.068 86.8946 207.068 81.6991V36.068L206.843 36.2939C203.984 38.6282 198.792 36.2186 195.406 30.8724C191.945 25.5263 191.493 19.3518 194.352 17.0175L215.119 0Z" fill="url(#paint7_linear)"/>
<path opacity="0.2" d="M215.119 607.057L194.202 565.944C191.342 560.297 191.794 554.65 195.255 553.295C198.716 551.94 203.833 555.478 206.692 561.126L206.917 561.652V516.021C206.917 510.826 210.529 508.717 215.044 511.278C219.559 513.913 223.171 520.163 223.171 525.358V570.989L223.396 570.764C226.255 568.43 231.447 570.839 234.833 576.185C238.294 581.532 238.746 587.706 235.887 590.04L215.119 607.057Z" fill="url(#paint8_linear)"/>
</g>
<defs>
<filter id="filter0_dd" x="252.778" y="267.656" width="49.4322" height="61.8517" filterUnits="userSpaceOnUse" color-interpolation-filters="sRGB">
<feFlood flood-opacity="0" result="BackgroundImageFix"/>
<feColorMatrix in="SourceAlpha" type="matrix" values="0 0 0 0 0 0 0 0 0 0 0 0 0 0 0 0 0 0 127 0"/>
<feMorphology radius="2" operator="erode" in="SourceAlpha" result="effect1_dropShadow"/>
<feOffset dy="4"/>
<feGaussianBlur stdDeviation="3"/>
<feColorMatrix type="matrix" values="0 0 0 0 0 0 0 0 0 0 0 0 0 0 0 0 0 0 0.05 0"/>
<feBlend mode="normal" in2="BackgroundImageFix" result="effect1_dropShadow"/>
<feColorMatrix in="SourceAlpha" type="matrix" values="0 0 0 0 0 0 0 0 0 0 0 0 0 0 0 0 0 0 127 0"/>
<feMorphology radius="3" operator="erode" in="SourceAlpha" result="effect2_dropShadow"/>
<feOffset dy="10"/>
<feGaussianBlur stdDeviation="7.5"/>
<feColorMatrix type="matrix" values="0 0 0 0 0 0 0 0 0 0 0 0 0 0 0 0 0 0 0.1 0"/>
<feBlend mode="normal" in2="effect1_dropShadow" result="effect2_dropShadow"/>
<feBlend mode="normal" in="SourceGraphic" in2="effect2_dropShadow" result="shape"/>
</filter>
<filter id="filter1_dd" x="252.778" y="431.732" width="49.4322" height="61.8515" filterUnits="userSpaceOnUse" color-interpolation-filters="sRGB">
<feFlood flood-opacity="0" result="BackgroundImageFix"/>
<feColorMatrix in="SourceAlpha" type="matrix" values="0 0 0 0 0 0 0 0 0 0 0 0 0 0 0 0 0 0 127 0"/>
<feMorphology radius="2" operator="erode" in="SourceAlpha" result="effect1_dropShadow"/>
<feOffset dy="4"/>
<feGaussianBlur stdDeviation="3"/>
<feColorMatrix type="matrix" values="0 0 0 0 0 0 0 0 0 0 0 0 0 0 0 0 0 0 0.05 0"/>
<feBlend mode="normal" in2="BackgroundImageFix" result="effect1_dropShadow"/>
<feColorMatrix in="SourceAlpha" type="matrix" values="0 0 0 0 0 0 0 0 0 0 0 0 0 0 0 0 0 0 127 0"/>
<feMorphology radius="3" operator="erode" in="SourceAlpha" result="effect2_dropShadow"/>
<feOffset dy="10"/>
<feGaussianBlur stdDeviation="7.5"/>
<feColorMatrix type="matrix" values="0 0 0 0 0 0 0 0 0 0 0 0 0 0 0 0 0 0 0.1 0"/>
<feBlend mode="normal" in2="effect1_dropShadow" result="effect2_dropShadow"/>
<feBlend mode="normal" in="SourceGraphic" in2="effect2_dropShadow" result="shape"/>
</filter>
<filter id="filter2_dd" x="85.4391" y="90.1567" width="57.5583" height="75.0698" filterUnits="userSpaceOnUse" color-interpolation-filters="sRGB">
<feFlood flood-opacity="0" result="BackgroundImageFix"/>
<feColorMatrix in="SourceAlpha" type="matrix" values="0 0 0 0 0 0 0 0 0 0 0 0 0 0 0 0 0 0 127 0"/>
<feMorphology radius="2" operator="erode" in="SourceAlpha" result="effect1_dropShadow"/>
<feOffset dy="4"/>
<feGaussianBlur stdDeviation="3"/>
<feColorMatrix type="matrix" values="0 0 0 0 0 0 0 0 0 0 0 0 0 0 0 0 0 0 0.05 0"/>
<feBlend mode="normal" in2="BackgroundImageFix" result="effect1_dropShadow"/>
<feColorMatrix in="SourceAlpha" type="matrix" values="0 0 0 0 0 0 0 0 0 0 0 0 0 0 0 0 0 0 127 0"/>
<feMorphology radius="3" operator="erode" in="SourceAlpha" result="effect2_dropShadow"/>
<feOffset dy="10"/>
<feGaussianBlur stdDeviation="7.5"/>
<feColorMatrix type="matrix" values="0 0 0 0 0 0 0 0 0 0 0 0 0 0 0 0 0 0 0.1 0"/>
<feBlend mode="normal" in2="effect1_dropShadow" result="effect2_dropShadow"/>
<feBlend mode="normal" in="SourceGraphic" in2="effect2_dropShadow" result="shape"/>
</filter>
<filter id="filter3_dd" x="72.6848" y="146.232" width="83.1413" height="84.4118" filterUnits="userSpaceOnUse" color-interpolation-filters="sRGB">
<feFlood flood-opacity="0" result="BackgroundImageFix"/>
<feColorMatrix in="SourceAlpha" type="matrix" values="0 0 0 0 0 0 0 0 0 0 0 0 0 0 0 0 0 0 127 0"/>
<feMorphology radius="2" operator="erode" in="SourceAlpha" result="effect1_dropShadow"/>
<feOffset dy="4"/>
<feGaussianBlur stdDeviation="3"/>
<feColorMatrix type="matrix" values="0 0 0 0 0 0 0 0 0 0 0 0 0 0 0 0 0 0 0.05 0"/>
<feBlend mode="normal" in2="BackgroundImageFix" result="effect1_dropShadow"/>
<feColorMatrix in="SourceAlpha" type="matrix" values="0 0 0 0 0 0 0 0 0 0 0 0 0 0 0 0 0 0 127 0"/>
<feMorphology radius="3" operator="erode" in="SourceAlpha" result="effect2_dropShadow"/>
<feOffset dy="10"/>
<feGaussianBlur stdDeviation="7.5"/>
<feColorMatrix type="matrix" values="0 0 0 0 0 0 0 0 0 0 0 0 0 0 0 0 0 0 0.1 0"/>
<feBlend mode="normal" in2="effect1_dropShadow" result="effect2_dropShadow"/>
<feBlend mode="normal" in="SourceGraphic" in2="effect2_dropShadow" result="shape"/>
</filter>
<filter id="filter4_dd" x="-12" y="211.924" width="121.815" height="109.69" filterUnits="userSpaceOnUse" color-interpolation-filters="sRGB">
<feFlood flood-opacity="0" result="BackgroundImageFix"/>
<feColorMatrix in="SourceAlpha" type="matrix" values="0 0 0 0 0 0 0 0 0 0 0 0 0 0 0 0 0 0 127 0"/>
<feMorphology radius="2" operator="erode" in="SourceAlpha" result="effect1_dropShadow"/>
<feOffset dy="4"/>
<feGaussianBlur stdDeviation="3"/>
<feColorMatrix type="matrix" values="0 0 0 0 0 0 0 0 0 0 0 0 0 0 0 0 0 0 0.05 0"/>
<feBlend mode="normal" in2="BackgroundImageFix" result="effect1_dropShadow"/>
<feColorMatrix in="SourceAlpha" type="matrix" values="0 0 0 0 0 0 0 0 0 0 0 0 0 0 0 0 0 0 127 0"/>
<feMorphology radius="3" operator="erode" in="SourceAlpha" result="effect2_dropShadow"/>
<feOffset dy="10"/>
<feGaussianBlur stdDeviation="7.5"/>
<feColorMatrix type="matrix" values="0 0 0 0 0 0 0 0 0 0 0 0 0 0 0 0 0 0 0.1 0"/>
<feBlend mode="normal" in2="effect1_dropShadow" result="effect2_dropShadow"/>
<feBlend mode="normal" in="SourceGraphic" in2="effect2_dropShadow" result="shape"/>
</filter>
<linearGradient id="paint0_linear" x1="611.58" y1="119.224" x2="378.594" y2="340.051" gradientUnits="userSpaceOnUse">
<stop stop-color="white"/>
<stop offset="1" stop-color="white" stop-opacity="0"/>
</linearGradient>
<linearGradient id="paint1_linear" x1="573.951" y1="155.368" x2="340.966" y2="376.195" gradientUnits="userSpaceOnUse">
<stop stop-color="white"/>
<stop offset="1" stop-color="white" stop-opacity="0"/>
</linearGradient>
<linearGradient id="paint2_linear" x1="382.886" y1="204.58" x2="391.306" y2="415.956" gradientUnits="userSpaceOnUse">
<stop stop-color="white"/>
<stop offset="1" stop-color="white" stop-opacity="0"/>
</linearGradient>
<linearGradient id="paint3_linear" x1="352.788" y1="219.639" x2="361.208" y2="431.015" gradientUnits="userSpaceOnUse">
<stop stop-color="white"/>
<stop offset="1" stop-color="white" stop-opacity="0"/>
</linearGradient>
<linearGradient id="paint4_linear" x1="382.87" y1="367.927" x2="391.29" y2="579.304" gradientUnits="userSpaceOnUse">
<stop stop-color="white"/>
<stop offset="1" stop-color="white" stop-opacity="0"/>
</linearGradient>
<linearGradient id="paint5_linear" x1="352.772" y1="383.74" x2="361.192" y2="595.116" gradientUnits="userSpaceOnUse">
<stop stop-color="white"/>
<stop offset="1" stop-color="white" stop-opacity="0"/>
</linearGradient>
<linearGradient id="paint6_linear" x1="199.867" y1="55.9736" x2="74.8925" y2="272.331" gradientUnits="userSpaceOnUse">
<stop stop-color="white"/>
<stop offset="1" stop-color="white" stop-opacity="0"/>
</linearGradient>
<linearGradient id="paint7_linear" x1="230.004" y1="41.4715" x2="191.827" y2="62.7373" gradientUnits="userSpaceOnUse">
<stop stop-color="white"/>
<stop offset="1" stop-color="white" stop-opacity="0"/>
</linearGradient>
<linearGradient id="paint8_linear" x1="200.194" y1="565.614" x2="238.371" y2="544.349" gradientUnits="userSpaceOnUse">
<stop stop-color="white"/>
<stop offset="1" stop-color="white" stop-opacity="0"/>
</linearGradient>
<clipPath id="clip0">
<rect width="625.04" height="624" fill="white"/>
</clipPath>
</defs>
</svg>
