<svg width="362" height="362" viewBox="0 0 362 362" fill="none" xmlns="http://www.w3.org/2000/svg">
<g filter="url(#filter0_dd)">
<mask id="mask0" mask-type="alpha" maskUnits="userSpaceOnUse" x="22" y="18" width="318" height="318">
<rect x="22" y="18" width="318" height="318" rx="43" fill="white"/>
<rect x="22" y="18" width="318" height="318" rx="43" stroke="#E8E8E8"/>
</mask>
<g mask="url(#mask0)">
<rect x="0.5" y="-17.5" width="407" height="419" fill="white" stroke="#E8E8E8"/>
<path d="M425.5 265.5C425.5 358.807 344.941 434.5 245.5 434.5C146.059 434.5 65.5 358.807 65.5 265.5C65.5 172.193 146.059 96.5 245.5 96.5C344.941 96.5 425.5 172.193 425.5 265.5Z" stroke="#E8E8E8"/>
<circle cx="99.5" cy="79.5" r="170" stroke="#E8E8E8"/>
</g>
</g>
<g filter="url(#filter1_d)">
<mask id="mask1" mask-type="alpha" maskUnits="userSpaceOnUse" x="58" y="57" width="241" height="241">
<circle cx="178.5" cy="177.5" r="120.5" fill="#E0E0E0"/>
</mask>
<g mask="url(#mask1)">
<path d="M299 180.512C299 247.063 245.05 301.012 178.5 301.012C111.95 301.012 58 247.063 58 180.512C58 113.962 111.95 60.0125 178.5 60.0125C245.05 60.0125 299 113.962 299 180.512Z" fill="url(#paint0_linear)"/>
<path d="M276.406 181.266C276.406 234.922 232.909 278.419 179.253 278.419C125.597 278.419 82.1 234.922 82.1 181.266C82.1 127.609 125.597 84.1125 179.253 84.1125C232.909 84.1125 276.406 127.609 276.406 181.266Z" fill="#4C90EA"/>
<g filter="url(#filter2_d)">
<path d="M249.294 181.266C249.294 219.948 217.936 251.306 179.253 251.306C140.571 251.306 109.213 219.948 109.213 181.266C109.213 142.583 140.571 111.225 179.253 111.225C217.936 111.225 249.294 142.583 249.294 181.266Z" fill="white"/>
</g>
<g filter="url(#filter3_d)">
<path d="M223.688 305.531C223.688 372.082 169.738 426.031 103.188 426.031C36.6372 426.031 -17.3125 372.082 -17.3125 305.531C-17.3125 238.981 36.6372 185.031 103.188 185.031C169.738 185.031 223.688 238.981 223.688 305.531Z" fill="url(#paint1_linear)"/>
</g>
<g filter="url(#filter4_d)">
<path d="M374.312 294.988C374.312 361.538 320.363 415.488 253.812 415.488C187.262 415.488 133.312 361.538 133.312 294.988C133.312 228.437 187.262 174.488 253.812 174.488C320.363 174.488 374.312 228.437 374.312 294.988Z" fill="url(#paint2_linear)"/>
</g>
</g>
</g>
<defs>
<filter id="filter0_dd" x="0" y="0" width="362" height="362" filterUnits="userSpaceOnUse" color-interpolation-filters="sRGB">
<feFlood flood-opacity="0" result="BackgroundImageFix"/>
<feColorMatrix in="SourceAlpha" type="matrix" values="0 0 0 0 0 0 0 0 0 0 0 0 0 0 0 0 0 0 127 0"/>
<feOffset dy="1"/>
<feGaussianBlur stdDeviation="1.5"/>
<feColorMatrix type="matrix" values="0 0 0 0 0 0 0 0 0 0 0 0 0 0 0 0 0 0 0.01 0"/>
<feBlend mode="normal" in2="BackgroundImageFix" result="effect1_dropShadow"/>
<feColorMatrix in="SourceAlpha" type="matrix" values="0 0 0 0 0 0 0 0 0 0 0 0 0 0 0 0 0 0 127 0"/>
<feOffset dy="4"/>
<feGaussianBlur stdDeviation="11"/>
<feColorMatrix type="matrix" values="0 0 0 0 0 0 0 0 0 0 0 0 0 0 0 0 0 0 0.25 0"/>
<feBlend mode="normal" in2="effect1_dropShadow" result="effect2_dropShadow"/>
<feBlend mode="normal" in="SourceGraphic" in2="effect2_dropShadow" result="shape"/>
</filter>
<filter id="filter1_d" x="54" y="57" width="249" height="249" filterUnits="userSpaceOnUse" color-interpolation-filters="sRGB">
<feFlood flood-opacity="0" result="BackgroundImageFix"/>
<feColorMatrix in="SourceAlpha" type="matrix" values="0 0 0 0 0 0 0 0 0 0 0 0 0 0 0 0 0 0 127 0"/>
<feOffset dy="4"/>
<feGaussianBlur stdDeviation="2"/>
<feColorMatrix type="matrix" values="0 0 0 0 0 0 0 0 0 0 0 0 0 0 0 0 0 0 0.25 0"/>
<feBlend mode="normal" in2="BackgroundImageFix" result="effect1_dropShadow"/>
<feBlend mode="normal" in="SourceGraphic" in2="effect1_dropShadow" result="shape"/>
</filter>
<filter id="filter2_d" x="103.213" y="105.225" width="152.081" height="152.081" filterUnits="userSpaceOnUse" color-interpolation-filters="sRGB">
<feFlood flood-opacity="0" result="BackgroundImageFix"/>
<feColorMatrix in="SourceAlpha" type="matrix" values="0 0 0 0 0 0 0 0 0 0 0 0 0 0 0 0 0 0 127 0"/>
<feOffset/>
<feGaussianBlur stdDeviation="3"/>
<feColorMatrix type="matrix" values="0 0 0 0 0 0 0 0 0 0 0 0 0 0 0 0 0 0 0.25 0"/>
<feBlend mode="normal" in2="BackgroundImageFix" result="effect1_dropShadow"/>
<feBlend mode="normal" in="SourceGraphic" in2="effect1_dropShadow" result="shape"/>
</filter>
<filter id="filter3_d" x="-23.3125" y="179.031" width="253" height="253" filterUnits="userSpaceOnUse" color-interpolation-filters="sRGB">
<feFlood flood-opacity="0" result="BackgroundImageFix"/>
<feColorMatrix in="SourceAlpha" type="matrix" values="0 0 0 0 0 0 0 0 0 0 0 0 0 0 0 0 0 0 127 0"/>
<feOffset/>
<feGaussianBlur stdDeviation="3"/>
<feColorMatrix type="matrix" values="0 0 0 0 0 0 0 0 0 0 0 0 0 0 0 0 0 0 0.25 0"/>
<feBlend mode="normal" in2="BackgroundImageFix" result="effect1_dropShadow"/>
<feBlend mode="normal" in="SourceGraphic" in2="effect1_dropShadow" result="shape"/>
</filter>
<filter id="filter4_d" x="127.312" y="168.488" width="253" height="253" filterUnits="userSpaceOnUse" color-interpolation-filters="sRGB">
<feFlood flood-opacity="0" result="BackgroundImageFix"/>
<feColorMatrix in="SourceAlpha" type="matrix" values="0 0 0 0 0 0 0 0 0 0 0 0 0 0 0 0 0 0 127 0"/>
<feOffset/>
<feGaussianBlur stdDeviation="3"/>
<feColorMatrix type="matrix" values="0 0 0 0 0 0 0 0 0 0 0 0 0 0 0 0 0 0 0.25 0"/>
<feBlend mode="normal" in2="BackgroundImageFix" result="effect1_dropShadow"/>
<feBlend mode="normal" in="SourceGraphic" in2="effect1_dropShadow" result="shape"/>
</filter>
<linearGradient id="paint0_linear" x1="178.5" y1="60.0125" x2="178.5" y2="301.012" gradientUnits="userSpaceOnUse">
<stop stop-color="#2F80ED"/>
<stop offset="1" stop-color="#2468C2"/>
</linearGradient>
<linearGradient id="paint1_linear" x1="137.5" y1="199.5" x2="83" y2="257" gradientUnits="userSpaceOnUse">
<stop stop-color="#60A5FA"/>
<stop offset="1" stop-color="#3175C9"/>
</linearGradient>
<linearGradient id="paint2_linear" x1="244.5" y1="254.5" x2="198" y2="182" gradientUnits="userSpaceOnUse">
<stop stop-color="#3175C9"/>
<stop offset="1" stop-color="#7BB3FF"/>
</linearGradient>
</defs>
</svg>
